<svg xmlns="http://www.w3.org/2000/svg" viewBox="0 0 512 512" width="512" height="512">
  <rect width="512" height="512" rx="128" fill="#0f172a"/>
  <!-- Steaming cup -->
  <path d="M160 224h160v112c0 26.5-21.5 48-48 48h-64c-26.5 0-48-21.5-48-48V224z" fill="#f59e0b"/>
  <path d="M320 256h24c13.3 0 24 10.7 24 24v16c0 13.3-10.7 24-24 24h-24v-64z" fill="none" stroke="#f59e0b" stroke-width="16" stroke-linecap="round"/>
  <path d="M208 128c0 0-16 16-16 32s16 32 16 32" stroke="#f59e0b" stroke-width="16" stroke-linecap="round" fill="none"/>
  <path d="M256 112c0 0-16 16-16 32s16 32 16 32" stroke="#f59e0b" stroke-width="16" stroke-linecap="round" fill="none"/>
  <path d="M304 128c0 0-16 16-16 32s16 32 16 32" stroke="#f59e0b" stroke-width="16" stroke-linecap="round" fill="none"/>
  <path d="M112 416h288" stroke="#f59e0b" stroke-width="24" stroke-linecap="round"/>
</svg>
